PERFORMER "Sasha"
TITLE "Essential Mix (2005-05-22)"
FILE "Sasha - Essential Mix (05-22-2005).mp3" MP3
  TRACK 01 AUDIO
    TITLE "Intro (Badger - Rise of the Machines)"
    PERFORMER "Sasha"
    INDEX 01 00:00:00
  TRACK 02 AUDIO
    TITLE "Abstract Forward Motion"
    PERFORMER "Detroit Escalator Company"
    INDEX 01 02:46:67
  TRACK 03 AUDIO
    TITLE "Kiss Ya Lips"
    PERFORMER "Ian Brown"
    INDEX 01 08:47:34
  TRACK 04 AUDIO
    TITLE "Hella Good (Sharam Jay mix)"
    PERFORMER "No Doubt"
    INDEX 01 14:16:55
  TRACK 05 AUDIO
    TITLE "Passive Massive (Edit)"
    PERFORMER "Timo Maas"
    INDEX 01 19:52:50
  TRACK 06 AUDIO
    TITLE "Tip Toe (Jonathan Hart Bootleg)"
    PERFORMER "Glitch"
    INDEX 01 24:14:11
  TRACK 07 AUDIO
    PERFORMER "ID"
    TITLE "ID"
    INDEX 01 29:38:31
  TRACK 08 AUDIO
    TITLE "Lovefood"
    PERFORMER "Michael Mayer"
    INDEX 01 37:17:21
  TRACK 09 AUDIO
    TITLE "Easy Lee (Smith 'n' Hack Remix)"
    PERFORMER "Ricardo Villalobos"
    INDEX 01 40:34:67
  TRACK 10 AUDIO
    TITLE "Science (Aril Brikha Remix)/Sasha - Wavy Gravy (Edit)"
    PERFORMER "Jori Hulkkonen"
    INDEX 01 45:59:62
  TRACK 11 AUDIO
    TITLE "Ride The Pain (Thin White Duke Mix)"
    PERFORMER "Juliet"
    INDEX 01 57:55:11
  TRACK 12 AUDIO
    TITLE "Zu Fuss"
    PERFORMER "Extrawelt"
    INDEX 01 64:30:32
  TRACK 13 AUDIO
    TITLE "New Light"
    PERFORMER "Spooky"
    INDEX 01 69:46:36
  TRACK 14 AUDIO
    TITLE "Breathe Me (Ulrich Schnauss Remix)"
    PERFORMER "Sia"
    INDEX 01 75:35:06
  TRACK 15 AUDIO
    TITLE "The Wall (The Egg Re-Edit)"
    PERFORMER "The Egg"
    INDEX 01 81:57:58
  TRACK 16 AUDIO
    TITLE "Lo-Fiction (Dub Mix)"
    PERFORMER "Jori Hulkkonnen feat. Jerry Valuri"
    INDEX 01 88:30:73
  TRACK 17 AUDIO
    TITLE "Feel Good Inc (Acapella)/Sasha - Wavy Gravy (Edit)"
    PERFORMER "Gorillaz"
    INDEX 01 94:58:49
  TRACK 18 AUDIO
    TITLE "Teen Angst (Luciano Mix) (Sasha Edit)"
    PERFORMER "M83"
    INDEX 01 103:09:55
  TRACK 19 AUDIO
    TITLE "Raining Again (Ewan Pearson Dub)/Thomas Newman - Drive Away"
    PERFORMER "Moby"
    INDEX 01 109:22:40
  TRACK 20 AUDIO
    TITLE "Outro"
    PERFORMER "Sasha"
    INDEX 01 117:31:64
